# xmcd CD database file
#
# Track frame offsets:
#	150
#	14105
#	33305
#	49800
#
# Disc length: 887 seconds
#
# Revision: 0
# Processed by: cddbd v1.5PL3 Copyright (c) Steve Scherf et al.
# Submitted via: CDex 1.51
#
DISCID=2f037504
DTITLE=FOOT STAMP - 本当の言葉
DYEAR=2004
DGENRE=JPop
TTITLE0=本当の言葉
TTITLE1=歪んだ太陽
TTITLE2=路上の詩
TTITLE3=残業
EXTD=YEAR: 2004
EXTT0=
EXTT1=
EXTT2=
EXTT3=
PLAYORDER=
